<svg y="279.14" x="513.83499" version="1.1" width="280.33002" height="80.92001" viewBox="0 0 97 28" id="svg203322" xmlns:xlink="http://www.w3.org/1999/xlink" xmlns="http://www.w3.org/2000/svg" xmlns:svg="http://www.w3.org/2000/svg" xmlns:rdf="http://www.w3.org/1999/02/22-rdf-syntax-ns#" xmlns:cc="http://creativecommons.org/ns#" xmlns:dc="http://purl.org/dc/elements/1.1/">
 <title>final</title>
 <metadata id="metadata203328">image/svg+xml</metadata>

 <linearGradient id="3d_gradient2-logo-d5641bf5-639b-46b7-8952-ca0684f297e9" x1="30%" y1="120%" x2="-10%" y2="30%" spreadMethod="pad">
  <stop offset="0%" stop-color="#ffffff" id="stop203303"/>
  <stop offset="100%" stop-color="#000000" id="stop203305"/>
 </linearGradient>
 <linearGradient id="3d_gradient3-logo-d5641bf5-639b-46b7-8952-ca0684f297e9" x1="30%" y1="120%" x2="-10%" y2="30%" spreadMethod="pad" gradientTransform="rotate(-30)">
  <stop offset="0%" stop-color="#ffffff" id="stop203308"/>
  <stop offset="50%" stop-color="#cccccc" id="stop203310"/>
  <stop offset="100%" stop-color="#000000" id="stop203312"/>
 </linearGradient>
 <g id="logo-group">
  <g id="logo-center">
   <image width="0" height="0" y="-310.8752" x="-31.26181" id="icon_container"/>
   <g text-anchor="middle" font-family="Montserrat" font-size="32px" font-weight="400" font-style="normal" transform="translate(0)" id="slogan"/>
   <g text-anchor="middle" font-family="'Montserrat Light Alt1'" font-size="72px" font-weight="300" font-style="normal" transform="translate(0)" id="title">
    <path transform="translate(0, -0.775197) translate(0, 314.74)" stroke="#ffffff" fill="#ffffff" stroke-miterlimit="2" stroke-width="0" d="m5.11534,-304.22705l0,9.16949l0.71505,0l0,-9.16949l3.5332,0l0,-0.64495l-7.78145,0l0,0.64495l3.5332,0z" id="path203331"/>
    <path transform="translate(0, -0.775197) translate(0, 314.74)" stroke="#ffffff" fill="#ffffff" stroke-miterlimit="2" stroke-width="0" d="m18.44818,-300.35736l-6.35135,0l0,0.63093l6.35135,0l0,-0.63093zm0,-4.51464l-6.35135,0l0,0.64495l6.35135,0l0,-0.64495zm-6.35135,9.16949l0,0.64495l6.35135,0l0,-0.64495l-6.35135,0z" id="path203333"/>
    <path transform="translate(0, -0.775197) translate(0, 314.74)" stroke="#ffffff" fill="#ffffff" stroke-miterlimit="2" stroke-width="0" d="m26.0525,-304.872l-0.71505,0l-4.51464,9.81444l0.77113,0l4.09402,-9.02929l4.10804,9.02929l0.77113,0l-4.51464,-9.81444z" id="path203335"/>
    <path transform="translate(0, -0.775197) translate(0, 314.74)" stroke="#ffffff" fill="#ffffff" stroke-miterlimit="2" stroke-width="0" d="m42.60417,-295.05756l0.70103,0l-0.01402,-9.81444l-0.58887,0l-4.38846,7.58516l-4.38846,-7.58516l-0.60289,0l0,9.81444l0.70103,0l0,-8.37032l4.10804,7.0664l0.35052,0l4.10804,-7.09444l0.01402,8.39836z" id="path203337"/>
    <path transform="translate(0, -0.775197) translate(0, 314.74)" stroke="#ffffff" fill="#ffffff" stroke-miterlimit="2" stroke-width="0" d="m60.67335,-304.872l-0.70103,0l-3.01444,8.84702l-3.0565,-8.84702l-0.68701,0l-3.07052,8.833l-2.98639,-8.833l-0.75711,0l3.33691,9.81444l0.75711,0l3.0565,-8.80496l3.04248,8.80496l0.75711,0l3.32289,-9.81444z" id="path203339"/>
    <path transform="translate(0, -0.775197) translate(0, 314.74)" stroke="#ffffff" fill="#ffffff" stroke-miterlimit="2" stroke-width="0" d="m65.16859,-295.6324c0.77113,0.43464 1.64041,0.64495 2.60784,0.64495c0.9534,0 1.82268,-0.21031 2.60784,-0.64495c0.77113,-0.42062 1.37402,-1.02351 1.82268,-1.78062c0.44866,-0.75711 0.67299,-1.59835 0.67299,-2.55175c0,-0.93938 -0.22433,-1.79464 -0.67299,-2.55175c-0.44866,-0.75711 -1.05155,-1.34598 -1.82268,-1.78062c-0.78516,-0.42062 -1.65443,-0.64495 -2.60784,-0.64495c-0.96742,0 -1.8367,0.22433 -2.60784,0.65897c-0.78516,0.43464 -1.38804,1.02351 -1.8367,1.78062c-0.44866,0.75711 -0.65897,1.61237 -0.65897,2.53773c0,0.93938 0.21031,1.78062 0.65897,2.53773c0.44866,0.75711 1.05155,1.36 1.8367,1.79464zm4.83712,-0.57485c-0.67299,0.37856 -1.41608,0.56083 -2.22928,0.56083c-0.82722,0 -1.57031,-0.18227 -2.2433,-0.56083c-0.67299,-0.36454 -1.19175,-0.8833 -1.57031,-1.54227c-0.39258,-0.65897 -0.57485,-1.40206 -0.57485,-2.21526c0,-0.8132 0.18227,-1.54227 0.57485,-2.20124c0.37856,-0.65897 0.89732,-1.17773 1.57031,-1.55629c0.67299,-0.36454 1.41608,-0.56083 2.2433,-0.56083c0.8132,0 1.55629,0.19629 2.22928,0.56083c0.65897,0.37856 1.17773,0.89732 1.57031,1.55629c0.37856,0.65897 0.57485,1.38804 0.57485,2.20124c0,0.8132 -0.19629,1.55629 -0.57485,2.21526c-0.39258,0.65897 -0.91134,1.17773 -1.57031,1.54227z" id="path203341"/>
    <path transform="translate(0, -0.775197) translate(0, 314.74)" stroke="#ffffff" fill="#ffffff" stroke-miterlimit="2" stroke-width="0" d="m81.50733,-298.49261c0.72907,-0.21031 1.30392,-0.57485 1.6965,-1.10763c0.39258,-0.53278 0.60289,-1.17773 0.60289,-1.96289c0,-1.02351 -0.35052,-1.8367 -1.05155,-2.42557c-0.70103,-0.58887 -1.66846,-0.8833 -2.90227,-0.8833l-3.51918,0l0,0.64495l3.51918,0c1.03753,0 1.8367,0.23835 2.39753,0.70103c0.5468,0.46268 0.82722,1.12165 0.82722,1.96289c0,0.85526 -0.28041,1.51423 -0.82722,1.97691c-0.56083,0.46268 -1.36,0.68701 -2.39753,0.68701l-3.51918,0l0,3.84165l0.71505,0l0,-3.21072l2.80413,0c0.28041,0 0.60289,-0.01402 0.9534,-0.0701l2.34145,3.28083l0.8132,0l-2.45361,-3.43505z" id="path203343"/>
    <path transform="translate(0, -0.775197) translate(0, 314.74)" stroke="#ffffff" fill="#ffffff" stroke-miterlimit="2" stroke-width="0" d="m90.32837,-299.89468l4.22021,4.83712l0.86928,0l-4.61279,-5.35588l4.31835,-4.45856l-0.86928,0l-6.12702,6.30928l0,-6.30928l-0.71505,0l0,9.81444l0.71505,0l0,-2.5798l2.20124,-2.25732z" id="path203345"/>
   </g>
   <image width="0" height="0" y="-310.8752" x="-31.26181" id="icon"/>
  </g>
 </g>
</svg>